HIERARCHY
ROOT Hips
{
	OFFSET 0.000000 8.830580 0.000000
	CHANNELS 6 Xposition Yposition Zposition Zrotation Yrotation Xrotation 
	JOINT Spine
	{
		OFFSET 0.000000 0.010000 0.000000
		CHANNELS 3 Zrotation Yrotation Xrotation
		JOINT Spine1
		{
			OFFSET 0.000000 2.459130 0.000000
			CHANNELS 3 Zrotation Yrotation Xrotation
			JOINT Neck
			{
				OFFSET 0.000000 2.484630 0.000000
				CHANNELS 3 Zrotation Yrotation Xrotation
				JOINT Head_virtual
				{
					OFFSET 0.000000 0.000000 0.000000
					CHANNELS 3 Zrotation Yrotation Xrotation
					JOINT Head
					{
						OFFSET 0.000000 0.927525 0.000000
						CHANNELS 3 Zrotation Yrotation Xrotation
						End Site
						{
							OFFSET 0.000000 0.000000 0.000000
						}
					}
				}
				JOINT LeftUpArm_virtual
				{
					OFFSET 0.000000 0.000000 0.000000
					CHANNELS 3 Zrotation Yrotation Xrotation
					JOINT LeftUpArm
					{
						OFFSET 1.248820 0.000000 0.000000
						CHANNELS 3 Zrotation Yrotation Xrotation
						JOINT LeftForeArm
						{
							OFFSET 2.597580 0.000000 0.000000
							CHANNELS 3 Zrotation Yrotation Xrotation
							JOINT LeftHand
							{
								OFFSET 2.455420 0.000000 0.000000
								CHANNELS 3 Zrotation Yrotation Xrotation
								End Site
								{
									OFFSET 0.000000 0.000000 0.000000
								}
							}
						}
					}
				}
				JOINT RightUpArm_virtual
				{
					OFFSET -0.000000 -0.000000 -0.000000
					CHANNELS 3 Zrotation Yrotation Xrotation
					JOINT RightUpArm
					{
						OFFSET -1.248820 -0.000000 -0.000000
						CHANNELS 3 Zrotation Yrotation Xrotation
						JOINT RightForeArm
						{
							OFFSET -2.597580 -0.000000 -0.000000
							CHANNELS 3 Zrotation Yrotation Xrotation
							JOINT RightHand
							{
								OFFSET -2.455420 -0.000000 -0.000000
								CHANNELS 3 Zrotation Yrotation Xrotation
								End Site
								{
									OFFSET 0.000000 0.000000 0.000000
								}
							}
						}
					}
				}
			}
		}
	}
	JOINT LeftUpLeg
	{
		OFFSET 1.271939 0.000000 0.000000
		CHANNELS 3 Zrotation Yrotation Xrotation
		JOINT LeftLowLeg
		{
			OFFSET 0.000000 -4.342910 0.000000
			CHANNELS 3 Zrotation Yrotation Xrotation
			JOINT LeftFoot
			{
				OFFSET 0.000000 -4.487670 0.000000
				CHANNELS 3 Zrotation Yrotation Xrotation
				JOINT LeftToeBase
				{
					OFFSET 0.000000 0.000000 1.515070
					CHANNELS 3 Zrotation Yrotation Xrotation
					End Site
					{
						OFFSET 0.000000 0.000000 0.000000
					}
				}
			}
		}
	}
	JOINT RightUpLeg
	{
		OFFSET -1.271939 0.000000 0.000000
		CHANNELS 3 Zrotation Yrotation Xrotation
		JOINT RightLowLeg
		{
			OFFSET 0.000000 -4.342910 0.000000
			CHANNELS 3 Zrotation Yrotation Xrotation
			JOINT RightFoot
			{
				OFFSET 0.000000 -4.487670 0.000000
				CHANNELS 3 Zrotation Yrotation Xrotation
				JOINT RightToeBase
				{
					OFFSET 0.000000 0.000000 1.515070
					CHANNELS 3 Zrotation Yrotation Xrotation
					End Site
					{
						OFFSET 0.000000 0.000000 0.000000
					}
				}
			}
		}
	}
}
MOTION
Frames: 5
Frame Time: 0.041667
-20.258376 9.343900 41.828813 -170.391976 0.013490 -160.606975 4.389527 5.279626 -4.998912 -0.229666 3.772779 9.250112 0.000000 0.000000 0.000000 28.223419 9.849859 -12.148885 -2.302598 10.581910 -53.941700 -6.884120 5.196350 4.882400 -28.243799 -13.482000 5.844740 180.000000 -55.168999 -180.000000 22.271700 17.854900 -46.677601 10.370300 -5.528380 -0.644127 -42.007099 56.169701 -34.276798 -180.000000 63.691002 -180.000000 -1.829340 -18.158701 -59.131401 4.696889 0.173470 -22.112106 0.000000 0.000000 7.713180 14.459400 -4.163899 8.799852 0.000000 0.000000 -32.756599 1.515036 0.916865 -11.072336 0.000000 0.000000 11.162300 12.027246 2.446694 20.633917 0.000000 0.000000 -32.849100 
-20.265603 9.342198 41.833863 -170.359019 0.091549 -160.403653 4.510952 5.508882 -4.803688 -0.487179 3.979263 9.219469 0.000000 0.000000 0.000000 28.444182 9.931495 -11.881322 -2.229898 10.553927 -54.051708 -6.759300 5.234460 4.928040 -28.431101 -13.144300 6.037530 180.000000 -53.943001 180.000000 22.509100 18.107599 -46.395401 10.573100 -5.723330 -0.611427 -42.188400 55.844299 -34.582901 180.000000 62.508003 180.000000 -2.282990 -18.564800 -59.146500 4.645057 0.316149 -22.321958 0.000000 0.000000 7.690820 14.472559 -4.236929 8.772974 0.000000 0.000000 -32.757900 1.501784 0.954298 -11.245581 0.000000 0.000000 11.036300 11.986547 2.397317 20.616584 0.000000 0.000000 -32.777599 
-20.272721 9.340461 41.840768 -170.326460 0.182939 -160.218953 4.498192 5.426027 -4.704648 -0.464945 3.899502 9.460423 0.000000 0.000000 0.000000 28.073398 10.213814 -11.868780 -2.087959 10.592340 -53.996215 -6.917760 5.828240 4.817160 -28.426599 -12.897000 6.129170 -180.000000 -52.892998 -180.000000 22.997400 18.352600 -45.750599 10.466200 -5.454610 -0.721046 -42.287800 55.752102 -34.823002 180.000000 61.550003 180.000000 -3.073110 -19.206400 -58.860298 4.605629 0.417686 -22.552932 0.000000 0.000000 7.734960 14.468248 -4.256130 8.742127 0.000000 0.000000 -32.740601 1.475945 1.075671 -11.437643 0.000000 0.000000 10.968700 11.979843 2.293248 20.566316 0.000000 0.000000 -32.675200 
-20.278874 9.339784 41.845675 -170.337908 0.215494 -160.017056 4.413078 5.354082 -4.724650 -0.408837 3.841318 9.802008 0.000000 0.000000 0.000000 27.825805 10.392817 -11.899330 -2.021031 10.648314 -54.009822 -7.048280 6.247730 4.717970 -28.430799 -12.684900 6.179100 180.000000 -52.040001 -180.000000 23.523100 18.580900 -45.271099 10.443100 -5.343080 -0.980167 -42.324501 55.769798 -35.008099 -180.000000 60.866997 -180.000000 -3.670430 -19.889799 -58.265598 4.517652 0.517856 -22.792983 0.000000 0.000000 7.755350 14.537160 -4.305036 8.761514 0.000000 0.000000 -32.752300 1.426960 1.122919 -11.615362 0.000000 0.000000 10.875200 11.950455 2.217613 20.515606 0.000000 0.000000 -32.575800 
-20.284807 9.339417 41.850975 -170.368888 0.288720 -159.846185 4.406048 5.443906 -4.531009 -0.641005 3.925014 9.666991 0.000000 0.000000 0.000000 28.010643 10.452582 -11.573448 -2.087660 10.549240 -54.193307 -6.971740 6.293720 4.946090 -28.435801 -12.485100 6.210900 180.000000 -51.365005 -180.000000 24.006399 18.954700 -45.153099 10.707900 -5.364420 -0.745516 -42.551201 55.411900 -35.369900 180.000000 60.434998 180.000000 -4.139010 -20.232599 -57.191002 4.415986 0.607737 -22.961765 0.000000 0.000000 7.714420 14.564336 -4.341831 8.815320 0.000000 0.000000 -32.703100 1.354839 1.104923 -11.780422 0.000000 0.000000 10.802300 11.934099 2.236413 20.482230 0.000000 0.000000 -32.519400 
